<svg xmlns="http://www.w3.org/2000/svg" xmlns:xlink="http://www.w3.org/1999/xlink" version="1.1" x="0px" y="0px" viewBox="0 0 100 125" style="enable-background:new 0 0 100 100;" xml:space="preserve"><style type="text/css">
	.st0{fill-rule:evenodd;clip-rule:evenodd;}
</style><path class="st0" d="M10.616,48.569C22.195,36.991,32.741,29,50,29c17.259,0,27.806,7.992,39.384,19.569  c0.79,0.79,0.79,2.072,0,2.862C77.806,63.009,67.258,71,50,71c-17.259,0-27.806-7.992-39.384-19.569  C9.826,50.641,9.826,49.359,10.616,48.569L10.616,48.569z M50,37.349c-6.987,0-12.651,5.664-12.651,12.651  c0,11.235,13.647,16.895,21.596,8.945C66.895,50.996,61.235,37.349,50,37.349L50,37.349z M56.083,43.917  C50.678,38.512,41.397,42.359,41.397,50s9.281,11.488,14.686,6.083C59.442,52.724,59.442,47.276,56.083,43.917L56.083,43.917z   M29.904,38.1c-5.271,2.943-10.042,7.059-14.98,11.9C25.298,60.169,34.716,66.952,50,66.952S74.702,60.169,85.076,50  C74.702,39.831,65.285,33.048,50,33.048C42.005,33.048,35.614,34.913,29.904,38.1z"/><text x="0" y="115" fill="#000000" font-size="5px" font-weight="bold" font-family="'Helvetica Neue', Helvetica, Arial-Unicode, Arial, Sans-serif">Created by Hadi Mulyono</text><text x="0" y="120" fill="#000000" font-size="5px" font-weight="bold" font-family="'Helvetica Neue', Helvetica, Arial-Unicode, Arial, Sans-serif">from the Noun Project</text></svg>