<svg xmlns="http://www.w3.org/2000/svg" width="32" height="32">
    <path style="stroke:none;fill-rule:nonzero;fill:#000;fill-opacity:1" d="M13.734 10.266c-.52.52-.52 1.347 0 1.867l2.532 2.535H4c-.734 0-1.332.598-1.332 1.332 0 .734.598 1.332 1.332 1.332h12.266l-2.532 2.535c-.52.52-.52 1.348 0 1.867.52.52 1.344.52 1.868 0l4.785-4.789c.52-.52.52-1.36 0-1.879l-4.785-4.8a1.313 1.313 0 0 0-1.868 0Zm12.934 15.066h-9.336A1.34 1.34 0 0 0 16 26.668c0 .73.602 1.332 1.332 1.332h9.336c1.465 0 2.664-1.2 2.664-2.668V6.668c0-1.469-1.2-2.668-2.664-2.668h-9.336C16.602 4 16 4.602 16 5.332a1.34 1.34 0 0 0 1.332 1.336h9.336Zm0 0"/>
</svg>
